<svg xmlns="http://www.w3.org/2000/svg" width="800" height="600" fill="none" viewBox="0 0 800 600">
    <path d="M142.035 293.57C142.035 335.932 186.885 366.76 206.758 401.028C227.189 436.398 232.182 490.294 267.479 510.813C301.786 530.663 350.626 508.486 393.035 508.486C435.445 508.486 484.284 530.663 518.591 510.813C553.889 490.405 558.894 436.41 579.312 401.028C599.185 366.76 644.035 336.043 644.035 293.57C644.035 251.096 599.073 220.38 579.312 186.112C558.882 150.742 553.889 96.7345 518.591 76.327C484.284 56.4764 435.445 78.6537 393.035 78.6537C350.626 78.6537 301.786 56.4764 267.479 76.327C232.07 96.7345 227.176 150.73 206.758 186.112C186.885 220.491 142.035 251.208 142.035 293.57Z" fill="black" opacity="0.07"/>
    <path d="M694.035 483.517C694.035 485.402 616.97 487.048 507.757 487.725C506.345 487.725 504.933 487.751 503.484 487.751C500.264 487.778 497.007 487.791 493.713 487.818C483.422 487.884 472.883 487.911 462.109 487.95C440.871 488.03 418.741 488.07 396.041 488.07C231.496 488.07 98.0352 485.999 98.0352 483.517C98.0352 481.526 190.84 479.76 317.082 479.229C323.125 479.189 329.267 479.176 335.472 479.163C346.196 479.123 357.144 479.096 368.277 479.096C377.404 479.096 386.692 479.07 396.041 479.07C401.218 479.07 406.382 479.07 411.484 479.07H421.366C439.323 479.096 456.797 479.136 473.701 479.216C477.651 479.216 481.552 479.242 485.428 479.269C487.707 479.269 489.986 479.296 492.252 479.296C501.515 479.349 510.568 479.402 519.397 479.455C622.407 480.158 694.023 481.711 694.023 483.53L694.035 483.517Z" fill="black" opacity="0.3"/>
    <path d="M669.025 247.082H376.021C364.427 247.107 355.035 256.494 355.035 268.07V435.552C355.01 447.153 364.402 456.577 376.021 456.589H483.039V463.725C481.925 471.504 476.691 473.718 473.041 474.25H432.209C430.637 474.25 429.375 475.524 429.375 477.082V481.225C429.375 482.796 430.637 484.07 432.209 484.07H612.849C614.408 484.07 615.695 482.796 615.695 481.225V477.094C615.695 475.511 614.421 474.238 612.849 474.238H571.943C568.305 473.669 563.034 471.467 561.945 463.676V456.589H669.037C680.631 456.589 690.023 447.202 690.035 435.601V268.058C690.035 256.469 680.631 247.082 669.037 247.07L669.025 247.082ZM682.029 435.564C682.029 442.737 676.202 448.55 669.025 448.562H376.021C368.832 448.562 363.016 442.737 363.004 435.564V268.082C363.004 260.909 368.832 255.084 376.021 255.084H669.025C676.202 255.084 682.029 260.909 682.029 268.082V435.564Z" fill="#454C5E"/>
    <path d="M501.023 269.07L469.48 261.336C467.33 260.805 465.18 260.533 463.042 260.533H349.362C344.801 260.533 341.035 256.802 341.035 252.256V188.347C341.035 183.813 344.788 180.07 349.362 180.07H477.136C481.697 180.07 485.463 183.801 485.463 188.347V233.712C485.463 238.11 486.532 242.385 488.682 246.252L501.035 269.07H501.023Z" fill="#DADCE0"/>
    <path d="M489.035 260.07L470.349 255.563C467.803 254.9 465.282 254.63 462.613 254.63H349.569C348.098 254.63 347.035 253.439 347.035 252.112V188.722C347.035 187.261 348.234 186.193 349.569 186.193L476.627 186.07C478.098 186.07 479.161 187.261 479.161 188.587V233.68C479.161 238.985 480.495 244.278 483.029 248.932L489.035 260.07Z" fill="#232B41"/>
    <path d="M462.551 201.07H401.519C400.147 201.07 399.035 202.159 399.035 203.502V206.637C399.035 207.981 400.147 209.07 401.519 209.07H462.551C463.923 209.07 465.035 207.981 465.035 206.637V203.502C465.035 202.159 463.923 201.07 462.551 201.07Z" fill="#454C5E"/>
    <path d="M462.564 223.07H362.506C361.142 223.07 360.035 224.188 360.035 225.568V233.572C360.035 234.951 361.142 236.07 362.506 236.07H462.564C463.929 236.07 465.035 234.951 465.035 233.572V225.568C465.035 224.188 463.929 223.07 462.564 223.07Z" fill="#066FD1"/>
    <path d="M256.035 172.058L283.041 165.451C284.877 164.996 286.714 164.763 288.563 164.763H385.911C389.821 164.763 393.035 161.576 393.035 157.701V103.131C393.035 99.256 389.821 96.0698 385.911 96.0698H276.488C272.578 96.0698 269.364 99.256 269.364 103.131V141.869C269.364 145.633 268.446 149.275 266.609 152.584L256.035 172.07V172.058Z" fill="#A6A9B3"/>
    <path d="M266.048 165.07L282.104 161.169C284.283 160.599 286.461 160.364 288.752 160.364H385.856C387.119 160.364 388.035 159.336 388.035 158.184V103.361C388.035 102.098 387.008 101.181 385.856 101.181L276.706 101.07C275.444 101.07 274.527 102.098 274.527 103.249V142.246C274.527 146.828 273.389 151.41 271.197 155.435L266.035 165.07H266.048Z" fill="#232B41"/>
    <path d="M288.637 145.07H347.433C348.87 145.07 350.035 143.94 350.035 142.546V138.593C350.035 137.2 348.87 136.07 347.433 136.07H288.637C287.2 136.07 286.035 137.2 286.035 138.593V142.546C286.035 143.94 287.2 145.07 288.637 145.07Z" fill="#066FD1"/>
    <path d="M289.483 125.07H337.588C339.492 125.07 341.035 123.538 341.035 121.648V117.491C341.035 115.602 339.492 114.07 337.588 114.07H289.483C287.579 114.07 286.035 115.602 286.035 117.491V121.648C286.035 123.538 287.579 125.07 289.483 125.07Z" fill="#DADCE0"/>
    <path d="M331.947 264.521C331.058 265.531 329.986 266.439 328.768 267.18C323.288 270.492 316.723 269.341 314.117 264.585C311.644 260.098 313.556 254.05 318.367 250.586C318.672 250.368 318.976 250.151 319.305 249.959C324.786 246.648 331.35 247.798 333.956 252.555C335.99 256.249 335.053 261.031 331.947 264.521Z" fill="#FFCB9D"/>
    <path d="M332.023 264.64C331.13 265.624 330.054 266.508 328.831 267.23C323.329 270.455 316.738 269.334 314.121 264.703C311.639 260.333 313.559 254.444 318.389 251.07C321.005 254.867 326.569 261.914 332.035 264.64H332.023Z" fill="black" opacity="0.1"/>
    <path d="M247.322 206.127C250.318 205.929 254.482 206.14 258.236 208.484C272.977 217.689 261.728 247.487 273.636 257.101C279.254 261.629 290.777 262.299 315.773 248.988C320.198 258.304 324.61 267.608 329.035 276.925C314.89 284.963 302.262 288.065 293.996 289.417C283.306 291.166 274.208 292.518 264.127 288.089C255.402 284.244 250.504 278.066 247.695 274.431C245.296 271.33 234.283 256.94 239.355 247.04C240.61 244.596 242.611 243.157 243.742 242.45L247.31 206.152L247.322 206.127Z" fill="#066FD1"/>
    <path d="M249.035 206.082C248.261 214.968 247.486 223.84 246.712 232.713C245.213 249.852 243.701 266.991 242.202 284.142C241.028 297.451 239.867 310.76 238.705 324.07H170.215C168.878 310.748 167.542 297.451 166.205 284.142C165.443 276.595 164.694 269.073 163.932 261.526C163.17 254.041 163.307 253.173 162.795 250.224C161.021 240.05 158.736 239.12 157.561 230.297C156.762 224.274 157.062 218.983 157.249 215.885C157.474 211.969 157.924 208.623 158.348 206.07H249.035V206.082Z" fill="#066FD1"/>
    <path d="M179.523 247.16C192.784 261.729 194.613 269.538 200.916 272.244C208.219 275.383 221.023 271.429 245.035 238.164C243.898 253.523 242.761 268.896 241.624 284.255C240.463 297.527 239.313 310.798 238.164 324.07H170.403C169.08 310.786 167.758 297.527 166.436 284.255H166.152L161.035 230.07C165.521 233.53 172.22 239.128 179.536 247.16H179.523Z" fill="black" opacity="0.1"/>
    <path d="M189.47 134.126C188.802 137.705 187.886 142.963 186.958 149.471C186.773 150.904 186.599 152.155 186.538 152.584C185.882 158.38 185.733 166.506 186.921 174.117C187.156 175.538 187.404 176.887 187.738 178.21C188.963 183.137 204.416 192.231 219.275 193.91C234.073 195.65 242.548 182.794 237.636 175.416C236.152 173.124 235.075 169.668 234.395 166.016C233.467 161.31 233.034 156.187 232.898 152.755C232.737 150.206 232.749 148.551 232.749 148.551L223.581 136.222L196.225 130.07C195.495 134.702 193.565 137.595 192.056 137.546C190.62 137.485 189.68 134.727 189.482 134.126H189.47Z" fill="#FFCB9D"/>
    <path d="M189.516 134.111C188.839 137.687 187.911 142.94 186.971 149.443C186.783 150.876 186.607 152.125 186.544 152.554C185.88 158.346 185.729 166.465 186.933 174.07C188.187 173.972 190.231 173.641 192.463 172.564C192.965 172.319 195.259 171.168 197.391 168.731C198.971 166.93 199.736 165.253 200.727 163.061C201.467 161.444 201.956 160.06 202.269 159.056C205.667 161.065 211.034 163.722 218.107 165.216C225.129 166.698 231.098 166.441 235.035 165.987C234.095 161.285 233.656 156.166 233.518 152.737C233.355 150.19 233.367 148.537 233.367 148.537L224.075 136.217L196.35 130.07C195.61 134.699 193.654 137.589 192.124 137.54C190.67 137.479 189.717 134.723 189.516 134.123V134.111Z" fill="black" opacity="0.1"/>
    <path d="M185.489 138.566C184.286 144.609 185.551 151.027 188.391 155.359C189.135 156.507 189.544 156.782 190.238 158.156C191.888 161.389 192.136 164.76 192.074 167.07C194.306 165.21 195.174 163.412 195.559 162.151C196.439 159.154 196.402 153.249 196.514 152.437C196.514 152.4 196.526 152.213 196.551 151.963C196.613 151.526 196.625 151.339 196.712 150.652C197.01 148.767 197.419 147.244 197.704 146.257C197.729 146.145 197.741 146.12 197.791 146.045V146.008C203.781 151.851 221.204 166.745 236.818 159.604C237.363 159.392 240.513 157.893 243.527 155.271C243.688 155.159 243.899 154.984 244.035 154.785C244.494 154.36 244.965 153.911 245.424 153.374C245.461 153.349 245.511 153.286 245.548 153.249C245.548 153.211 245.585 153.224 245.585 153.224C246.677 151.938 247.607 150.49 248.239 148.867L248.475 148.242C248.698 147.543 248.859 146.832 248.971 146.058C249.293 143.011 248.376 140.239 246.825 137.78H246.788C243.812 133.036 238.628 129.44 235.9 127.567C225.309 120.176 207.898 115.032 195.472 123.322C190.462 126.693 187.932 131.825 187.932 131.825C186.183 135.108 185.613 137.955 185.476 138.554L185.489 138.566Z" fill="#454C5E"/>
    <path d="M170.035 324.07L175.878 465.07H187.376L203.279 356.135L214.182 465.07H222.704L238.035 324.07H170.035Z" fill="#DADCE0"/>
    <path d="M201.035 485.057L175.129 482.032C175.129 482.032 174.19 474.984 178.248 472.512C182.307 470.039 196.801 478.455 201.035 485.07V485.057Z" fill="#454C5E"/>
    <path d="M238.035 485.057L213.126 482.032C213.126 482.032 212.222 474.984 216.125 472.512C220.028 470.039 233.964 478.455 238.035 485.07V485.057Z" fill="#454C5E"/>
    <path d="M214.701 465.07L204.035 356.135L208.78 324.07H238.035L223.037 465.07H214.701Z" fill="black" opacity="0.1"/>
    <path d="M197.22 146.426V146.388C203.253 152.302 220.804 167.377 236.531 160.149C237.08 159.934 240.253 158.418 243.288 155.764C243.451 155.65 243.663 155.473 243.801 155.271C244.263 154.842 244.737 154.387 245.2 153.843C245.237 153.818 245.287 153.755 245.324 153.717C245.324 153.679 245.362 153.692 245.362 153.692C246.461 152.39 247.398 150.924 248.035 149.282C242.914 152.39 238.529 153.717 235.656 154.361C214.021 159.151 196.121 142.875 193.26 140.272C193.16 140.184 193.085 140.12 193.035 140.07C193.248 140.462 194.659 143.065 197.207 146.439L197.22 146.426Z" fill="black" opacity="0.5"/>
    <path d="M197.047 205.081C200.854 208.682 205.77 211.083 211.107 211.946L211.854 212.07L225.035 206.337L197.035 205.07L197.047 205.081Z" fill="#FFCB9D"/>
    <path d="M197.047 205.081C200.854 208.682 205.77 211.083 211.107 211.946L211.854 212.07L225.035 206.337L197.035 205.07L197.047 205.081Z" fill="black" opacity="0.1"/>
    <path d="M212.035 212.161L229.062 200.07L233.035 203.998L221.583 221.07L212.035 212.161Z" fill="#DADCE0"/>
    <path d="M211.035 212.394L185.604 197.07L180.035 202.386L197.314 224.07L211.035 212.394Z" fill="#DADCE0"/>
    <path d="M212.035 212.161L229.062 200.07L233.035 203.998L221.583 221.07L212.035 212.161Z" fill="black" opacity="0.11"/>
    <path d="M203.035 227.205C207.552 249.485 212.08 271.777 216.443 294.07C217.546 271.566 218.79 249.05 220.035 226.708C217.178 221.775 214.475 217.003 211.547 212.07L210.812 212.231C208.405 217.301 205.797 222.247 203.035 227.217V227.205Z" fill="#DADCE0"/>
    <path d="M212.035 212.07L217.2 294.07C218.377 271.557 219.706 249.044 221.035 226.693C217.985 221.773 215.086 216.828 212.035 212.07Z" fill="black" opacity="0.11"/>
    <path d="M487.894 391.709C457.465 396.071 440.076 389.186 429.75 381.804C411.29 368.618 401.674 352.598 397.614 344.272C390.962 330.601 388.807 318.111 388.035 310.07C393.391 310.579 398.747 311.076 404.103 311.586C405.648 315.675 419.972 352.051 454.886 359.943C466.171 362.491 476.223 361.31 483.398 359.62C485.316 361.609 487.994 364.952 489.626 369.736C493.201 380.213 488.978 389.472 487.882 391.709H487.894Z" fill="#066FD1"/>
    <path d="M463.871 395.07C463.336 395.07 462.826 394.822 462.495 394.377C462.088 393.808 452.561 380.152 466.991 360.745C467.539 360.015 468.583 359.854 469.334 360.374C470.086 360.906 470.264 361.92 469.717 362.65C456.751 380.103 464.902 392.002 465.246 392.497C465.768 393.239 465.577 394.253 464.826 394.773C464.533 394.971 464.202 395.07 463.871 395.07Z" fill="#DADCE0"/>
    <path d="M436.04 389.057C435.17 389.057 434.36 388.527 434.015 387.651C433.788 387.084 428.701 373.586 444.153 354.871C444.939 353.908 446.333 353.797 447.262 354.624C448.191 355.438 448.298 356.882 447.5 357.844C433.931 374.29 437.922 385.48 438.101 385.948C438.542 387.121 437.994 388.441 436.874 388.909C436.6 389.02 436.326 389.07 436.052 389.07L436.04 389.057Z" fill="#DADCE0"/>
    <path d="M410.728 366.058C410.728 366.058 410.64 366.058 410.59 366.058C409.107 365.985 407.963 364.774 408.039 363.345C408.064 362.8 408.918 350.049 427.507 344.2C428.915 343.752 430.435 344.502 430.9 345.859C431.366 347.215 430.586 348.68 429.179 349.128C414.071 353.875 413.418 363.503 413.405 363.599C413.33 364.992 412.149 366.07 410.716 366.07L410.728 366.058Z" fill="#DADCE0"/>
    <path d="M395.144 339.07C394.933 339.07 394.709 339.035 394.497 338.977C393.401 338.641 392.791 337.564 393.127 336.533C393.264 336.14 396.514 326.955 411.802 326.075C412.96 325.994 413.969 326.828 414.031 327.905C414.105 328.982 413.222 329.92 412.051 329.978C399.801 330.685 397.236 337.414 397.136 337.703C396.838 338.525 396.016 339.047 395.132 339.047L395.144 339.07Z" fill="#DADCE0"/>
    <path d="M490.145 292.082L478.723 289.485C475.789 288.818 472.869 290.655 472.202 293.59L469.605 305.012C468.938 307.946 470.776 310.865 473.71 311.533L485.132 314.13C488.066 314.797 490.986 312.959 491.653 310.025L494.25 298.603C494.917 295.669 493.079 292.749 490.145 292.082Z" fill="#066FD1"/>
    <path d="M604.677 392.991L604.229 394.927L602.178 403.911L597.38 425.02L591.898 449.07H461.138C460.864 444.329 461.138 439.49 461.946 434.637C462.145 433.434 462.381 432.23 462.667 431.026L471.294 393.127L477.87 364.213C478.168 362.885 478.653 361.644 479.275 360.503C482.283 355.042 488.647 351.977 495.049 353.429L593.862 375.841C601.582 377.603 606.43 385.272 604.677 392.991Z" fill="#A6A9B3"/>
    <path d="M629.593 336.574C625.127 356.257 588.136 364.605 546.965 355.211C520.158 349.103 498.177 336.972 487.335 323.821C481.53 316.779 478.925 309.451 480.476 302.571C484.941 282.888 521.932 274.539 563.116 283.92C588.843 289.78 610.105 301.19 621.356 313.706C628.117 321.221 631.267 329.159 629.593 336.549V336.574Z" fill="#DADCE0"/>
    <path d="M629.592 336.252C625.117 356.216 588.048 364.684 546.79 355.156C519.927 348.96 497.9 336.656 487.035 323.317C519.915 325.122 582.914 326.371 621.338 313.07C628.112 320.692 631.27 328.743 629.592 336.239V336.252Z" fill="black" opacity="0.1"/>
    <path d="M582.785 311.282L516.111 296.122C508.542 294.401 501.011 299.142 499.29 306.71C497.569 314.279 502.31 321.81 509.878 323.531L576.553 338.691C584.122 340.412 591.652 335.671 593.373 328.103C595.094 320.534 590.354 313.003 582.785 311.282Z" fill="#066FD1"/>
    <path d="M634.848 324.981L623.426 322.384C620.492 321.717 617.572 323.554 616.905 326.488L614.308 337.911C613.641 340.845 615.479 343.764 618.413 344.431L629.835 347.029C632.769 347.696 635.689 345.858 636.356 342.924L638.953 331.502C639.62 328.568 637.782 325.648 634.848 324.981Z" fill="#066FD1"/>
    <path d="M602.035 404.07L597.242 425.104L591.765 449.07H461.138C460.865 444.346 461.138 439.523 461.945 434.688C487.775 432.883 527.128 428.233 567.165 416.374C570.816 415.298 574.467 414.161 578.118 412.961C582.973 411.353 587.829 409.647 592.647 407.804C594.684 407.038 596.72 406.234 598.757 405.405C599.85 404.973 600.942 404.527 602.035 404.07Z" fill="black" opacity="0.1"/>
    <path d="M597.884 410.566C600.988 396.916 596.833 384.334 588.604 382.462C580.375 380.591 571.189 390.14 568.085 403.791C564.981 417.441 569.136 430.024 577.365 431.895C585.593 433.766 594.78 424.217 597.884 410.566Z" fill="#454C5E"/>
    <path d="M653.035 449.07H619.352C617.409 442.678 613.886 435.836 607.597 430.658C604.771 428.307 601.371 426.305 597.299 424.829C595.768 424.279 594.136 423.791 592.406 423.404C592.194 423.353 591.982 423.303 591.758 423.266C588.458 422.553 584.797 422.153 580.738 422.128C579.704 419.976 578.459 416.674 578.123 412.547C578.073 411.884 578.036 411.196 578.036 410.495C577.961 399.363 584.897 391.858 586.653 390.07C590.662 390.795 594.385 391.646 597.86 392.584C599.341 392.984 600.773 393.409 602.156 393.847C602.828 394.06 603.5 394.272 604.16 394.498C614.272 397.887 621.855 402.14 627.595 406.618C632.439 410.383 635.976 414.298 638.653 418C641.89 422.478 644.717 427.831 647.145 433.347C649.486 438.676 651.441 444.142 653.035 449.07Z" fill="#066FD1"/>
    <path d="M592.109 426.07C591.348 426.07 590.671 425.479 590.552 424.649C587.211 400.572 601.144 392.588 601.738 392.261C602.511 391.833 603.45 392.148 603.855 392.965C604.259 393.782 603.962 394.775 603.189 395.203C602.666 395.492 590.647 402.52 593.655 424.159C593.785 425.064 593.191 425.906 592.335 426.045C592.264 426.045 592.18 426.057 592.109 426.057V426.07Z" fill="#DADCE0"/>
    <path d="M607.293 433.07C607.062 433.07 606.818 433.033 606.587 432.959C605.405 432.564 604.759 431.281 605.149 430.085C612.74 406.698 626.839 404.194 627.436 404.095C628.666 403.91 629.824 404.749 630.007 405.995C630.202 407.228 629.373 408.4 628.142 408.598C627.606 408.696 616.067 411.003 609.414 431.503C609.097 432.465 608.22 433.07 607.269 433.07H607.293Z" fill="#DADCE0"/>
    <path d="M617.98 448.07C617.15 448.07 616.331 447.715 615.749 447.019C614.683 445.754 614.831 443.856 616.059 442.78C634.591 426.518 647.446 430.429 647.979 430.606C649.528 431.112 650.384 432.795 649.9 434.39C649.404 435.959 647.78 436.832 646.231 436.351C645.971 436.275 635.57 433.593 619.901 447.336C619.344 447.829 618.662 448.057 617.98 448.07Z" fill="#DADCE0"/>
    <path d="M156.65 343.175C156.012 342.007 155.527 340.692 155.272 339.291C154.085 333.011 157.48 327.148 162.865 326.202C167.958 325.305 172.974 329.066 174.531 334.756C174.633 335.112 174.722 335.481 174.799 335.85C175.986 342.13 172.591 347.992 167.205 348.939C163.019 349.676 158.858 347.243 156.65 343.162V343.175Z" fill="#FFCB9D"/>
    <path d="M156.609 343.07C155.987 341.909 155.514 340.602 155.266 339.21C154.109 332.968 157.418 327.142 162.667 326.201C167.629 325.309 172.518 329.047 174.035 334.703C169.57 335.912 161.037 338.831 156.609 343.07Z" fill="black" opacity="0.1"/>
    <path d="M158.601 206.07C158.145 206.157 157.431 206.318 156.618 206.616C145.138 210.897 142.601 232.527 141.517 267.162C140.951 285.205 140.692 309.305 141.838 338.07C154.241 336.382 166.632 334.694 179.035 333.007C177.397 318.674 175.894 304.043 174.564 289.114C172.322 263.973 170.709 239.526 169.613 215.873C165.942 212.61 162.272 209.334 158.601 206.07Z" fill="#066FD1"/>
    <path d="M362.199 133.866C362.199 132.734 362.38 131.728 362.729 130.847C363.09 129.966 363.536 129.199 364.078 128.52C364.619 127.84 365.197 127.211 365.824 126.62C366.45 126.041 367.028 125.475 367.57 124.947C368.112 124.406 368.557 123.852 368.919 123.273C369.28 122.695 369.448 122.04 369.448 121.323C369.448 120.153 368.991 119.222 368.076 118.505C367.16 117.788 365.944 117.436 364.427 117.436C362.909 117.436 361.669 117.75 360.513 118.379C359.369 119.008 358.418 119.889 357.671 121.034L352.035 117.587C353.276 115.612 354.998 114.026 357.201 112.844C359.405 111.661 362.066 111.07 365.21 111.07C367.534 111.07 369.581 111.422 371.351 112.114C373.121 112.806 374.506 113.825 375.518 115.159C376.529 116.492 377.035 118.128 377.035 120.065C377.035 121.323 376.855 122.443 376.481 123.424C376.108 124.393 375.626 125.236 375.036 125.953C374.446 126.67 373.82 127.337 373.158 127.941C372.495 128.557 371.857 129.161 371.279 129.74C370.689 130.319 370.195 130.935 369.81 131.589C369.424 132.243 369.232 132.998 369.232 133.879H362.211L362.199 133.866ZM365.727 146.07C364.427 146.07 363.355 145.63 362.512 144.761C361.669 143.881 361.26 142.849 361.26 141.654C361.26 140.459 361.681 139.389 362.512 138.572C363.355 137.741 364.415 137.326 365.727 137.326C367.04 137.326 368.136 137.741 368.967 138.572C369.786 139.402 370.195 140.421 370.195 141.654C370.195 142.887 369.786 143.893 368.967 144.761C368.148 145.642 367.064 146.07 365.727 146.07Z" fill="#066FD1"/>
    <path d="M399.813 315.07C399.033 315.07 398.264 314.935 397.508 314.664L387.009 310.828C385.36 310.225 384.009 308.984 383.265 307.397L379.646 299.614C378.902 298.028 378.84 296.208 379.447 294.573L381.964 287.798C382.571 286.151 383.811 284.823 385.422 284.085L394 280.163C394.52 279.929 395.14 280.15 395.376 280.667L397.545 285.327C397.781 285.843 397.557 286.458 397.037 286.692L388.682 290.516L386.339 296.823L389.748 304.164L399.776 307.84L406.061 304.963L408.726 297.795L404.858 289.458C404.623 288.942 404.858 288.327 405.367 288.093L410.065 285.942C410.585 285.708 411.205 285.942 411.441 286.446L415.42 295.003C416.163 296.602 416.238 298.397 415.618 300.045L412.779 307.668C412.172 309.316 410.945 310.631 409.321 311.369L402.59 314.443C401.698 314.848 400.756 315.058 399.813 315.058V315.07Z" fill="#DADCE0"/>
    <path d="M397.212 286.07L391.719 291.516L389.326 296.975L391.339 301.557L404.035 306.089L399.757 308.07L389.516 304.274L386.035 296.695L388.428 290.183L397.212 286.07Z" fill="#A6A9B3"/>
    <path d="M615.035 477.217V481.275C615.035 482.818 613.763 484.07 612.206 484.07H431.864C430.295 484.07 429.035 482.818 429.035 481.275V477.192C429.035 475.661 430.295 474.422 431.864 474.422H472.629C476.273 473.899 481.499 471.724 482.61 464.081V457.07H561.386V464.032C562.473 471.7 567.735 473.851 571.367 474.422H612.206C613.763 474.422 615.035 475.661 615.035 477.217Z" fill="black" opacity="0.4"/>
</svg>
