<svg xmlns="http://www.w3.org/2000/svg" width="800" height="600" fill="none" viewBox="0 0 800 600">
    <path d="M120.121 311.575C120.121 356.936 168.012 389.951 189.227 426.656C211.042 464.54 216.37 522.261 254.061 544.227C290.684 565.483 342.846 541.738 388.121 541.738C433.396 541.738 485.558 565.495 522.181 544.227C559.872 522.369 565.212 464.54 587.015 426.656C608.231 389.963 656.121 357.069 656.121 311.575C656.121 266.081 608.111 233.198 587.015 196.493C565.2 158.609 559.872 100.768 522.181 78.9225C485.558 57.6663 433.396 81.4112 388.121 81.4112C342.846 81.4112 290.684 57.6542 254.061 78.9225C216.25 100.78 211.03 158.609 189.227 196.493C168.012 233.307 120.121 266.201 120.121 311.575Z" fill="black" opacity="0.07"/>
    <path d="M75.1211 498.008C75.1211 501.318 219.333 504.075 397.121 504.075C574.909 504.075 719.121 501.318 719.121 498.008C719.121 494.699 574.909 492.075 397.121 492.075C219.333 492.075 75.1211 494.831 75.1211 498.008Z" fill="#1D2535" opacity="0.5"/>
    <path d="M569.882 179.075H198.36C187.735 179.075 179.121 187.662 179.121 198.254V366.895C179.121 377.488 187.735 386.075 198.36 386.075H569.882C580.507 386.075 589.121 377.488 589.121 366.895V198.254C589.121 187.662 580.507 179.075 569.882 179.075Z" fill="#232B41"/>
    <path d="M569.799 390.075H198.455C185.588 390.075 175.121 379.644 175.121 366.821V198.328C175.121 185.505 185.588 175.075 198.455 175.075H569.787C582.654 175.075 593.121 185.505 593.121 198.328V366.821C593.121 379.644 582.654 390.075 569.787 390.075H569.799ZM198.455 183.256C190.113 183.256 183.331 190.015 183.331 198.328V366.821C183.331 375.134 190.113 381.893 198.455 381.893H569.787C578.129 381.893 584.911 375.134 584.911 366.821V198.328C584.911 190.015 578.129 183.256 569.787 183.256H198.455Z" fill="#454C5E"/>
    <path d="M411.365 236.092L429.058 245.218L446.121 254.006L407.007 279.053L399.148 284.075L398.124 244.566C397.946 237.565 405.209 232.918 411.377 236.092H411.365Z" fill="#066FD1"/>
    <path d="M479.485 479.97L472.317 482.632C468.661 483.993 464.573 482.114 463.219 478.416L442.853 422.999L431.562 392.321C430.207 388.648 432.077 384.553 435.757 383.18L442.925 380.518C446.581 379.157 450.657 381.036 452.023 384.733L459.767 405.823L483.68 470.84C485.035 474.538 483.165 478.621 479.485 479.982V479.97Z" fill="#A6A9B3"/>
    <path d="M555.121 472.52V485.629C555.121 491.951 549.979 497.075 543.663 497.075H399.567C393.239 497.075 388.121 491.939 388.121 485.629V472.52C388.121 466.199 393.239 461.075 399.567 461.075H543.663C549.991 461.075 555.121 466.211 555.121 472.52Z" fill="#DADCE0"/>
    <path d="M555.121 472.53V483.075C528.798 473.237 481.485 465.556 448.121 461.075H543.713C550.014 461.075 555.121 466.215 555.121 472.53Z" fill="black" opacity="0.1"/>
    <path d="M459.121 405.857C453.499 408.535 446.414 413.627 442.584 423.075L431.552 392.343C430.228 388.663 432.055 384.56 435.651 383.185L442.654 380.518C446.227 379.155 450.209 381.037 451.544 384.741L459.109 405.869L459.121 405.857Z" fill="black" opacity="0.1"/>
    <path d="M461.933 384.602C459.038 391.629 453.402 397.45 445.829 400.299C431.327 405.755 415.222 398.217 409.862 383.445C407.481 376.869 407.625 369.976 409.79 363.875C412.506 356.251 418.369 349.87 426.41 346.85C440.923 341.394 457.028 348.933 462.376 363.704C464.937 370.755 464.59 378.184 461.922 384.614L461.933 384.602Z" fill="#066FD1"/>
    <path d="M461.894 384.063C446.391 362.345 424.334 361.216 409.121 363.618C411.871 356.099 417.806 349.805 425.945 346.826C440.637 341.445 456.94 348.88 462.355 363.45C464.947 370.405 464.595 377.732 461.894 384.075V384.063Z" fill="black" opacity="0.1"/>
    <path d="M636.121 481.6C632.891 482.092 629.661 482.583 626.443 483.075C610.914 454.942 595.385 426.809 579.845 398.676C564.962 400.618 550.091 402.559 535.197 404.501C534.204 419.173 533.187 433.833 532.194 448.505C529.095 448.529 526.021 448.541 522.922 448.577C518.651 427.768 514.38 406.947 510.121 386.137C521.331 381.067 533.713 376.081 547.256 371.514C552.663 369.68 557.975 368.013 563.179 366.503C579.462 361.768 594.715 358.424 608.593 356.075C617.769 397.909 626.945 439.754 636.121 481.588V481.6Z" fill="#066FD1"/>
    <path d="M615.121 501.063L637.961 499.637C637.961 499.637 639.04 493.677 635.593 491.514C632.146 489.341 619.072 495.652 615.121 501.075" fill="#454C5E"/>
    <path d="M515.121 473.075L536.121 462.399C536.121 462.399 534.544 456.612 530.327 456.093C526.11 455.563 516.49 466.596 515.121 473.075Z" fill="#454C5E"/>
    <path d="M561.109 217.513C560.465 220.505 559.414 225.103 558.078 230.503C557.732 231.707 557.421 232.777 557.374 233.057C555.655 239.09 553.185 244.721 550.07 250.085C549.485 251.107 548.757 252.104 548.172 253.138C545.642 256.641 530.76 258.806 518.646 255.266C506.532 251.727 504.289 238.798 510.411 234.517C512.643 232.789 514.529 230.588 515.913 228.155C517.966 224.993 519.78 221.648 521.343 218.121C522.226 216.163 522.859 214.861 522.859 214.861L533.958 208.075L557.051 212.137C556.109 216.053 556.717 218.985 557.887 219.471C559.044 219.958 560.763 217.999 561.121 217.501" fill="#FFCB9D"/>
    <path d="M561.121 217.605C560.479 220.587 559.434 225.17 558.103 230.554C557.758 231.754 557.449 232.821 557.402 233.1C555.691 239.114 553.231 244.728 550.13 250.075C548.751 249.274 547.397 248.329 546.375 247.031C545.222 245.71 544.402 244.012 543.855 242.375C543.333 240.593 543.095 238.726 543.154 236.774C543.095 235.501 543.154 234.385 543.214 233.136C533.886 234.579 524.285 232.748 516.121 228.093C518.165 224.94 519.971 221.606 521.528 218.09C522.407 216.138 523.037 214.84 523.037 214.84L534.088 208.075L557.081 212.124C556.142 216.028 556.748 218.951 557.913 219.435C559.077 219.92 560.753 218.114 561.109 217.617" fill="black" opacity="0.1"/>
    <path d="M564.097 217.33C563.999 219.009 563.841 220.511 563.683 221.8C563.623 222.273 563.562 222.711 563.501 223.125C563.258 224.674 562.966 226.542 562.285 228.967C561.75 230.871 561.422 231.805 560.887 233.106C559.902 235.542 559.233 236.11 558.479 238.723C557.616 241.774 557.811 242.732 557.288 243.868C556.96 244.577 556.084 245.866 552.388 247.025C550.953 247.463 535.463 252.122 530.903 245.736C529.991 244.459 529.712 243.028 529.712 241.573C529.7 237.931 531.487 234.253 529.748 233.212C527.839 232.065 523.803 234.951 520.313 237.931C525.152 231.344 525.262 228.352 524.253 226.803C522.915 224.804 519.766 225.916 516.532 222.77C514.988 221.15 513.626 219.269 512.702 217.342C512.592 217.188 512.483 217.034 512.532 216.762C512.337 216.325 512.142 215.733 511.948 215.296C511.948 215.296 511.972 215.166 511.838 215.142C511.376 213.829 511.194 212.434 511.158 211.062L511.121 210.506C511.389 207.396 513.139 204.688 515.814 203.068C519.669 200.43 524.921 199.402 527.706 198.763C531.937 197.817 552.509 195.96 560.911 208.448C562.249 210.435 563.623 213.309 564.121 217.342L564.097 217.33Z" fill="#454C5E"/>
    <path d="M544.671 372.075C546.853 344.444 539.691 328.849 531.78 319.535C530.321 317.816 528.79 316.264 527.234 314.819C527.21 314.807 527.198 314.795 527.198 314.795C517.419 305.768 506.711 301.517 507.133 293.015C507.411 287.439 512.511 282.698 523.967 274.925C532.769 268.966 543.742 263.032 553.654 258.829C566.689 253.324 573.779 252.034 579.001 253.837C591.023 257.981 591.794 274.996 599.198 301.744H599.21C602.165 312.454 606.204 324.718 612.45 338.342C613.789 341.256 615.115 343.966 616.369 346.45C618.54 350.772 620.541 354.378 622.121 357.161C596.316 362.116 570.5 367.083 544.671 372.063V372.075Z" fill="#DADCE0"/>
    <path d="M540.524 271.085C533.57 274.058 527.155 275.497 524.121 274.966C532.874 269.079 543.773 263.216 553.641 259.075C554.337 259.252 554.816 259.558 555.02 260.007C556.016 262.26 549.529 267.227 540.524 271.085Z" fill="#FFCB9D"/>
    <path d="M514.394 219.075C513.876 218.389 513.229 217.408 512.653 216.132C510.135 210.613 510.688 203.216 514.558 197.579C518.582 191.73 526.122 187.901 533.251 189.402C536.416 190.075 538.745 191.635 540.121 192.758C533.769 190.961 528.04 192.569 526.216 196.007C525.134 198.052 525.475 200.64 525.51 200.888C525.887 203.535 527.816 206.123 528.875 207.316C529.522 208.049 529.922 208.309 529.887 208.486C529.875 208.545 529.804 208.581 529.792 208.593C529.463 208.794 523.146 213.107 514.394 219.063V219.075Z" fill="#454C5E"/>
    <path d="M345.121 456.555C345.181 467.84 340.511 478.05 332.949 485.299C325.831 492.166 316.133 496.417 305.438 496.477C293.902 496.536 283.459 491.724 276.125 483.974H276.113C271.936 479.531 268.743 474.145 266.955 468.139L239.407 468.294C234.666 484.833 219.41 496.978 201.261 497.074C179.223 497.217 161.254 479.531 161.122 457.594C161.05 442.679 169.236 429.626 181.443 422.784C187.169 419.547 193.771 417.696 200.805 417.649C208.619 417.613 215.917 419.798 222.086 423.62L283.772 423.273C289.893 419.38 297.167 417.111 304.981 417.075C327.02 416.944 345.001 434.618 345.121 456.555Z" fill="#DADCE0"/>
    <path d="M245.642 429.949L242.629 429.966C241.171 429.974 239.995 431.164 240.003 432.622L240.012 434.135C240.021 435.593 241.21 436.769 242.668 436.76L245.681 436.743C247.14 436.734 248.315 435.545 248.307 434.087L248.298 432.574C248.29 431.116 247.101 429.94 245.642 429.949Z" fill="#A6A9B3"/>
    <path d="M260.154 429.865L257.141 429.882C255.682 429.891 254.507 431.08 254.515 432.538L254.524 434.051C254.532 435.51 255.722 436.685 257.18 436.677L260.193 436.659C261.652 436.651 262.827 435.462 262.819 434.003L262.81 432.491C262.802 431.032 261.612 429.857 260.154 429.865Z" fill="#A6A9B3"/>
    <path d="M223.99 459.204L223.953 452.926C223.945 451.394 222.696 450.16 221.165 450.169L179.151 450.411C177.619 450.419 176.385 451.668 176.394 453.2L176.43 459.478C176.439 461.009 177.687 462.243 179.219 462.235L221.233 461.993C222.764 461.984 223.998 460.735 223.99 459.204Z" fill="#454C5E"/>
    <path d="M307.121 447.075C311.539 447.075 315.121 443.493 315.121 439.075C315.121 434.656 311.539 431.075 307.121 431.075C302.703 431.075 299.121 434.656 299.121 439.075C299.121 443.493 302.703 447.075 307.121 447.075Z" fill="#066FD1"/>
    <path d="M323.121 463.075C327.539 463.075 331.121 459.493 331.121 455.075C331.121 450.656 327.539 447.075 323.121 447.075C318.703 447.075 315.121 450.656 315.121 455.075C315.121 459.493 318.703 463.075 323.121 463.075Z" fill="white"/>
    <path d="M291.121 464.075C295.539 464.075 299.121 460.493 299.121 456.075C299.121 451.656 295.539 448.075 291.121 448.075C286.703 448.075 283.121 451.656 283.121 456.075C283.121 460.493 286.703 464.075 291.121 464.075Z" fill="white"/>
    <path d="M267.109 468.252L239.521 468.407C234.773 484.881 219.495 496.979 201.319 497.074C179.249 497.217 161.254 479.6 161.122 457.749C161.049 442.892 169.248 429.891 181.473 423.075C199.913 438.8 239.593 468.228 267.121 468.252H267.109Z" fill="black" opacity="0.1"/>
    <path d="M333.121 485.453C325.981 492.592 316.252 497.012 305.524 497.074C293.953 497.136 283.478 492.133 276.121 484.075C288.667 487.787 312.074 492.617 333.121 485.453Z" fill="black" opacity="0.1"/>
    <path d="M203.199 432.377L196.921 432.413C195.39 432.422 194.156 433.671 194.164 435.202L194.406 477.216C194.415 478.748 195.664 479.982 197.195 479.973L203.473 479.937C205.005 479.928 206.239 478.679 206.23 477.148L205.988 435.134C205.98 433.603 204.731 432.368 203.199 432.377Z" fill="#454C5E"/>
    <path d="M307.121 480.075C311.539 480.075 315.121 476.493 315.121 472.075C315.121 467.656 311.539 464.075 307.121 464.075C302.703 464.075 299.121 467.656 299.121 472.075C299.121 476.493 302.703 480.075 307.121 480.075Z" fill="#066FD1"/>
    <path d="M383.121 154.617L348.369 137.07C342.21 133.964 334.944 138.515 335.124 145.372L336.135 184.075L383.109 154.629L383.121 154.617Z" fill="#A6A9B3"/>
    <path d="M286.121 34.6917C286.121 34.6527 286.121 34.6137 286.121 34.5746C286.121 25.462 278.734 18.0746 269.621 18.0746C260.864 18.0746 253.7 24.8969 253.154 33.5165C250.654 32.5842 247.947 32.0746 245.121 32.0746C232.419 32.0746 222.121 42.3721 222.121 55.0747C222.121 67.7772 232.419 78.0746 245.121 78.0746C245.464 78.0746 245.806 78.0671 246.146 78.0522C246.129 78.391 246.121 78.7319 246.121 79.0747C246.121 90.6726 255.523 100.075 267.121 100.075C278.719 100.075 288.121 90.6726 288.121 79.0747C288.121 78.6392 288.108 78.2068 288.082 77.778C289.233 77.9731 290.416 78.0746 291.621 78.0746C303.495 78.0746 313.121 68.2249 313.121 56.0746C313.121 43.9244 303.495 34.0746 291.621 34.0746C289.72 34.0746 287.876 34.3273 286.12 34.8015C286.12 34.7649 286.12 34.7283 286.121 34.6917Z" fill="#283247"/>
    <path d="M245.621 258.075C255.838 258.075 264.121 249.792 264.121 239.575C264.121 229.357 255.838 221.075 245.621 221.075C235.404 221.075 227.121 229.357 227.121 239.575C227.121 249.792 235.404 258.075 245.621 258.075Z" fill="#DADCE0"/>
    <path d="M263.621 243.075C268.868 243.075 273.121 238.597 273.121 233.075C273.121 227.552 268.868 223.075 263.621 223.075C258.374 223.075 254.121 227.552 254.121 233.075C254.121 238.597 258.374 243.075 263.621 243.075Z" fill="#DADCE0"/>
    <path d="M267.621 266.075C275.077 266.075 281.121 260.031 281.121 252.575C281.121 245.119 275.077 239.075 267.621 239.075C260.165 239.075 254.121 245.119 254.121 252.575C254.121 260.031 260.165 266.075 267.621 266.075Z" fill="#DADCE0"/>
    <path d="M250.621 276.075C258.077 276.075 264.121 270.03 264.121 262.575C264.121 255.119 258.077 249.075 250.621 249.075C243.165 249.075 237.121 255.119 237.121 262.575C237.121 270.03 243.165 276.075 250.621 276.075Z" fill="#DADCE0"/>
    <path d="M225.121 272.075C231.749 272.075 237.121 266.702 237.121 260.075C237.121 253.447 231.749 248.075 225.121 248.075C218.494 248.075 213.121 253.447 213.121 260.075C213.121 266.702 218.494 272.075 225.121 272.075Z" fill="#A6A9B3"/>
    <path d="M237.121 262.075C240.435 262.075 243.121 259.388 243.121 256.075C243.121 252.761 240.435 250.075 237.121 250.075C233.807 250.075 231.121 252.761 231.121 256.075C231.121 259.388 233.807 262.075 237.121 262.075Z" fill="#A6A9B3"/>
    <path d="M239.621 277.075C244.316 277.075 248.121 273.269 248.121 268.575C248.121 263.88 244.316 260.075 239.621 260.075C234.927 260.075 231.121 263.88 231.121 268.575C231.121 273.269 234.927 277.075 239.621 277.075Z" fill="#A6A9B3"/>
    <path d="M228.621 283.075C233.315 283.075 237.121 279.269 237.121 274.575C237.121 269.88 233.315 266.075 228.621 266.075C223.927 266.075 220.121 269.88 220.121 274.575C220.121 279.269 223.927 283.075 228.621 283.075Z" fill="#A6A9B3"/>
    <path d="M258.523 293.907C258.704 293.751 258.932 293.642 259.197 293.63C259.835 293.582 260.4 294.064 260.448 294.704C260.797 299.047 261.519 303.282 262.59 307.299C262.759 307.926 262.386 308.566 261.772 308.735C261.146 308.904 260.509 308.53 260.34 307.914C259.221 303.764 258.475 299.385 258.126 294.897C258.09 294.511 258.258 294.161 258.523 293.919V293.907ZM267.849 317.397C267.897 317.312 267.945 317.24 268.005 317.168C268.439 316.685 269.173 316.661 269.654 317.095C272.698 319.882 276.032 322.271 279.545 324.201L279.967 324.431C280.532 324.732 280.749 325.444 280.448 326.011C280.135 326.578 279.437 326.795 278.872 326.494L278.426 326.252C274.756 324.225 271.266 321.728 268.09 318.821C267.68 318.447 267.596 317.855 267.849 317.397ZM290.46 329.558C290.712 329.099 291.242 328.858 291.771 328.991C295.766 330.004 300.002 330.608 304.346 330.776C304.996 330.801 305.489 331.343 305.465 331.995C305.441 332.646 304.9 333.141 304.25 333.117C299.737 332.936 295.345 332.309 291.194 331.259C290.568 331.102 290.195 330.463 290.351 329.835C290.375 329.739 290.412 329.642 290.46 329.558ZM318.257 295.814C318.955 294.535 319.833 293.389 320.856 292.411C322.36 290.976 324.189 289.878 326.283 289.142C326.897 288.925 327.559 289.251 327.763 289.866C327.98 290.481 327.655 291.145 327.041 291.35C325.26 291.965 323.72 292.894 322.456 294.1C320.94 295.548 319.845 297.406 319.183 299.614C318.991 300.229 318.353 300.591 317.727 300.398C317.114 300.217 316.753 299.566 316.933 298.938C317.27 297.816 317.703 296.755 318.233 295.789L318.257 295.814ZM317.029 311.618C317.186 311.329 317.475 311.099 317.824 311.027C318.461 310.894 319.075 311.316 319.195 311.944C319.292 312.451 319.388 312.885 319.472 313.247C320.23 316.745 321.638 320.256 323.636 323.67C323.961 324.225 323.78 324.949 323.227 325.275C322.673 325.601 321.951 325.42 321.626 324.865C319.496 321.233 318.004 317.493 317.186 313.753C317.102 313.379 317.005 312.933 316.897 312.402C316.837 312.125 316.897 311.847 317.017 311.606L317.029 311.618ZM316.211 330.668C316.38 330.354 316.692 330.125 317.065 330.077C321.373 329.437 325.525 328.412 329.424 327.024C330.025 326.807 330.699 327.133 330.916 327.736C331.132 328.339 330.808 329.015 330.206 329.232C326.163 330.668 321.855 331.73 317.402 332.393C316.765 332.49 316.175 332.043 316.079 331.404C316.043 331.138 316.091 330.885 316.211 330.668ZM338.292 290.324C338.593 289.781 339.255 289.564 339.821 289.83C340.109 289.974 340.41 290.119 340.687 290.276C344.213 292.218 347.257 295.488 349.267 299.493C349.556 300.072 349.327 300.772 348.749 301.062C348.172 301.351 347.474 301.122 347.185 300.543C345.392 296.96 342.684 294.04 339.58 292.327C339.339 292.194 339.087 292.062 338.834 291.941C338.256 291.663 338.004 290.964 338.28 290.385C338.28 290.36 338.304 290.348 338.316 290.324H338.292ZM329.664 333.853C329.713 333.768 329.773 333.684 329.845 333.6C330.29 333.129 331.036 333.117 331.493 333.563C334.55 336.519 337.967 339.077 341.626 341.152C342.179 341.466 342.384 342.177 342.071 342.732C341.758 343.311 341.036 343.504 340.482 343.191C336.656 341.019 333.082 338.341 329.881 335.252C329.496 334.878 329.424 334.299 329.664 333.853ZM340.362 321.764C340.446 321.607 340.567 321.475 340.723 321.366C343.972 319.086 346.331 316.637 347.739 314.079C348.075 313.452 348.352 312.825 348.569 312.209C348.785 311.606 349.447 311.28 350.061 311.497C350.675 311.715 350.988 312.378 350.771 312.993C350.518 313.729 350.181 314.477 349.784 315.201C348.208 318.097 345.609 320.811 342.059 323.296C341.529 323.67 340.807 323.538 340.434 323.007C340.17 322.633 340.157 322.15 340.374 321.776L340.362 321.764ZM352.034 346.388C352.275 345.941 352.805 345.688 353.322 345.809C354.983 346.195 356.643 346.46 358.28 346.605C360.735 346.822 363.262 346.774 365.801 346.46C366.438 346.376 367.028 346.834 367.1 347.474C367.184 348.113 366.727 348.704 366.089 348.777C363.394 349.114 360.698 349.163 358.075 348.933C356.342 348.777 354.561 348.487 352.805 348.089C352.179 347.944 351.782 347.317 351.926 346.689C351.95 346.581 351.986 346.484 352.034 346.388ZM377.341 343.516C377.461 343.299 377.641 343.118 377.882 343.01C381.612 341.333 385.247 339.113 388.688 336.411C389.193 336.012 389.928 336.097 390.325 336.616C390.722 337.122 390.637 337.858 390.12 338.256C386.534 341.079 382.732 343.396 378.833 345.145C378.243 345.411 377.557 345.145 377.292 344.554C377.136 344.204 377.16 343.818 377.329 343.516H377.341ZM413.922 292.761C414.163 292.327 414.656 292.074 415.174 292.17C415.811 292.291 416.22 292.906 416.1 293.546C415.258 297.901 414.079 302.172 412.61 306.249C412.382 306.853 411.72 307.166 411.118 306.949C410.517 306.732 410.204 306.056 410.42 305.453C411.852 301.496 412.996 297.346 413.814 293.111C413.838 292.991 413.874 292.87 413.934 292.773L413.922 292.761ZM397.677 327.736C397.713 327.664 397.761 327.603 397.809 327.543C400.505 324.346 402.948 320.811 405.078 317.059C405.39 316.492 406.112 316.299 406.666 316.625C407.232 316.939 407.436 317.662 407.099 318.217C404.897 322.102 402.37 325.746 399.59 329.051C399.169 329.546 398.435 329.606 397.942 329.196C397.509 328.834 397.412 328.219 397.665 327.736H397.677Z" fill="#066FD1"/>
    <path d="M411.398 236.092L429.121 245.218C415.489 254.175 409.705 268.781 407.021 279.053L399.15 284.075L398.124 244.566C397.945 237.565 405.221 232.918 411.398 236.092Z" fill="black" opacity="0.1"/>
    <path d="M383.478 155.075L419.921 212.287L432.121 231.441L384.776 261.075L336.121 184.72V184.708L383.478 155.087V155.075Z" fill="#DADCE0"/>
    <path d="M419.921 211.874L432.121 231.191L384.776 261.075L336.121 184.075C337.867 186.777 371.594 219.448 419.921 211.874Z" fill="black" opacity="0.1"/>
    <path d="M377.121 213.075C386.51 213.075 394.121 205.687 394.121 196.575C394.121 187.462 386.51 180.075 377.121 180.075C367.732 180.075 360.121 187.462 360.121 196.575C360.121 205.687 367.732 213.075 377.121 213.075Z" fill="#066FD1"/>
    <path d="M331.103 128.075C330.502 128.075 329.913 127.796 329.512 127.276L323.547 119.418C322.864 118.522 323.017 117.215 323.901 116.513C324.773 115.81 326.046 115.968 326.73 116.876L332.695 124.733C333.378 125.629 333.225 126.937 332.341 127.639C331.976 127.929 331.54 128.075 331.103 128.075Z" fill="#066FD1"/>
    <path d="M316.103 110.075C315.502 110.075 314.913 109.796 314.512 109.276L308.548 101.418C307.864 100.522 308.017 99.2148 308.901 98.5126C309.773 97.8104 311.046 97.9678 311.73 98.8758L317.695 106.733C318.378 107.629 318.225 108.937 317.341 109.639C316.976 109.929 316.54 110.075 316.103 110.075Z" fill="#066FD1"/>
    <path d="M521.109 317.9C520.267 322.903 518.572 330.029 514.916 337.95C513.605 340.759 512.186 343.846 510.358 346.945C507.953 351.044 504.874 355.216 500.461 358.941C488.278 369.238 473.643 369.72 463.613 370.034C453.452 370.371 446.344 368.575 441.281 366.658C435.257 364.355 428.041 361.702 426.442 355.409C425.479 351.623 426.766 347.367 429.195 344.654C433.08 340.313 439.273 340.566 442.592 340.699C444.661 340.784 446.068 341.013 448.629 341.724C454.245 343.291 457.035 346.004 465.273 347.355C465.273 347.355 465.586 347.403 465.862 347.451C467.582 347.692 474.304 347.74 480.51 344.22C485.945 341.145 488.615 336.672 492.139 330.595C493.846 327.666 495.855 323.687 497.647 318.719C498.585 316.103 499.451 313.221 500.184 310.075C507.171 312.691 514.146 315.295 521.121 317.924L521.109 317.9Z" fill="#FFCB9D"/>
    <path d="M624.592 241.588C624.293 242.119 623.97 242.674 623.622 243.253C621.168 247.404 617.672 252.592 612.763 258.119C611.889 259.096 610.979 260.085 610.021 261.075C609.29 260.218 608.56 259.361 607.842 258.505C603.316 253.172 598.79 247.838 594.252 242.505C595.569 241.685 598.814 239.573 601.987 236.497C605.89 232.708 609.662 227.459 609.494 221.378C609.147 208.914 592.432 200.335 586.05 197.017C569.348 188.366 557.314 191.057 553.95 182.755C552.286 178.677 553.148 172.946 556.357 169.568C569.551 155.716 617.791 186.966 623.598 195.376C623.778 195.642 628.328 202.278 628.328 202.278C630.22 205.705 632.123 209.264 632.854 214.392C634.291 224.443 629.705 232.479 624.58 241.564L624.592 241.588Z" fill="#FFCB9D"/>
    <path d="M287.503 70.2106L266.098 63.2866C264.612 62.8083 263.461 64.6379 264.552 65.762L276.273 77.8162C277.004 78.5696 276.764 79.8013 275.806 80.2318L268.495 83.4846C267.081 84.1184 267.428 86.2111 268.974 86.3427L285.214 87.7298C286.101 87.8016 286.724 88.6267 286.556 89.5117L283.332 106.289C283.032 107.832 285.01 108.729 285.993 107.497L301.105 88.3158C301.333 88.0288 301.657 87.8375 302.016 87.7657L314.768 85.386C316.386 85.087 316.41 82.791 314.816 82.4442L308.464 81.0689C307.206 80.7939 306.846 79.1795 307.877 78.4141L323.517 66.5991C324.859 65.5826 323.769 63.4779 322.163 63.9682L306.259 68.9071C305.66 69.0865 305.012 68.8951 304.629 68.4048L293.831 54.6525C293.004 53.6002 291.326 54.0666 291.158 55.394L289.456 68.9789C289.336 69.9116 288.402 70.5095 287.503 70.2225V70.2106Z" fill="#066FD1"/>
    <path d="M521.121 317.937C520.296 322.956 518.635 330.105 515.053 338.051C513.769 340.87 512.378 343.966 510.587 347.075C510.623 345.901 510.634 344.68 510.634 343.398C510.634 327.214 503.023 321.045 498.121 318.747C499.04 316.122 499.889 313.232 500.607 310.075C507.453 312.699 514.287 315.312 521.121 317.949V317.937Z" fill="black" opacity="0.1"/>
    <path d="M623.121 242.817C620.697 246.966 617.243 252.152 612.394 257.677C610.75 257.809 609.118 257.954 607.545 258.075C603.074 252.744 598.604 247.412 594.121 242.081C595.422 241.261 598.627 239.15 601.761 236.075C606.752 237.619 617.349 240.972 623.121 242.817Z" fill="black" opacity="0.1"/>
    <path d="M594.109 293.063C595.573 289.933 597.228 286.705 599.109 283.43C605.978 271.456 613.883 262.115 621.121 255.017C612.835 249.037 604.55 243.056 596.276 237.075C584.895 243.141 573.502 249.194 562.121 255.26C572.788 267.865 583.443 280.47 594.109 293.075V293.063Z" fill="#DADCE0"/>
    <path d="M513.785 283.075C510.553 285.969 506.925 289.684 503.357 294.327C498.497 300.671 495.264 306.798 493.121 311.731C503.286 317.845 513.462 323.96 523.626 330.075C526.129 319.329 528.619 308.571 531.121 297.825C525.338 292.904 519.568 287.995 513.785 283.075Z" fill="#DADCE0"/>
    <path d="M563.109 222.075C563.05 222.543 562.991 222.976 562.932 223.386C562.696 224.919 562.413 226.769 561.752 229.169C561.232 231.054 560.913 231.979 560.394 233.267C559.437 235.678 558.788 236.24 558.056 238.827C557.218 241.848 557.407 242.796 556.899 243.92C556.58 244.622 555.73 245.898 552.141 247.046C550.748 247.479 535.706 252.091 531.278 245.77C530.393 244.505 530.121 243.089 530.121 241.649C535.068 239.823 552.578 232.845 563.121 222.075H563.109Z" fill="black" opacity="0.5"/>
    <path d="M580.121 398.813C592.264 396.563 604.407 394.325 616.55 392.075C623.073 421.913 629.597 451.764 636.121 481.602L626.49 483.075L580.121 398.801V398.813Z" fill="black" opacity="0.1"/>
    <path d="M622.121 357.238C596.466 362.171 570.8 367.117 545.121 372.075C546.236 357.856 555.311 342.508 569.121 337.146C576.962 334.091 579.515 336.932 585.353 333.817C595.543 328.396 598.504 314.035 599.32 302.075H599.332C602.269 312.739 606.285 324.948 612.495 338.513C613.825 341.414 615.144 344.113 616.391 346.586C618.549 350.889 620.539 354.48 622.109 357.25L622.121 357.238Z" fill="black" opacity="0.1"/>
    <path d="M540.524 271.085C533.57 274.058 527.155 275.497 524.121 274.966C532.874 269.079 543.773 263.216 553.641 259.075C554.337 259.252 554.816 259.558 555.02 260.007C556.016 262.26 549.529 267.227 540.524 271.085Z" fill="black" opacity="0.1"/>
</svg>
